<svg xmlns="http://www.w3.org/2000/svg" viewBox="0 0 24 24" fill="#94A3B8" width="24" height="24"><path d="M.057 24l1.687-6.163c-1.041-1.804-1.588-3.849-1.587-5.946C.06 5.348 5.397.01 12.008.01c3.202.001 6.212 1.246 8.477 3.513 2.266 2.268 3.507 5.28 3.505 8.484-.004 6.657-5.34 11.997-11.953 11.997-2.005-.001-3.973-.502-5.713-1.455L0 24zm6.79-3.766c1.618.96 3.2 1.464 4.925 1.465 5.4 0 9.794-4.397 9.797-9.805.001-2.618-1.013-5.08-2.859-6.93C16.805 3.111 14.346 2.09 11.73 2.09c-5.402 0-9.8 4.401-9.802 9.812-.001 1.825.501 3.449 1.458 5.048L2.344 21.68l4.503-1.446zm11.332-6.52c-.312-.156-1.847-.91-2.128-1.012-.282-.101-.487-.152-.692.156-.204.307-.794 1.012-.973 1.215-.178.203-.357.228-.669.073-.312-.156-1.318-.486-2.51-1.548-.928-.827-1.554-1.85-1.736-2.16-.182-.312-.02-.48.136-.635.14-.14.312-.36.468-.54.156-.182.208-.312.312-.52.104-.207.052-.39-.026-.546-.078-.156-.692-1.666-.949-2.287-.25-.6-.523-.518-.692-.527-.17-.008-.364-.01-.559-.01-.195 0-.514.074-.784.365-.27.292-1.032 1.012-1.032 2.47s1.06 2.887 1.208 3.094c.149.208 2.086 3.185 5.055 4.47.706.305 1.258.487 1.687.625.71.226 1.356.194 1.867.118.57-.085 1.847-.756 2.108-1.45.261-.693.261-1.288.183-1.408-.078-.12-.282-.194-.594-.35z"/></svg>
